



Genre:Sci-Fi | Thriller
Language:English  http://www.imdb.com/title/tt1564585/
Source:BluRay.x264-Vetax


Format : AVI
Format/Info : Audio Video Interleave
File size : 1.17 GiB
Duration : 1h 28mn
Overall bit rate : 1 894 Kbps

Video
Codec ID/Hint : XviD
Duration : 1h 28mn
Bit rate : 1 499 Kbps
Width : 720 pixels
Height : 384 pixels
Display aspect ratio : 1.875
Frame rate : 25.000 fps
Color space : YUV
Chroma subsampling : 4:2:0
Bit depth : 8 bits
Scan type : Progressive
Bits/(Pixel*Frame) : 0.217
Stream size : 951 MiB (79%)
Writing library : XviD 1.2.1 (UTC 2008-12-04)

Audio
ID : 1
Format : AC-3
Format/Info : Audio Coding 3
Mode extension : CM (complete main)
Codec ID : 2000
Duration : 1h 28mn
Bit rate mode : Constant
Bit rate : 384 Kbps
Channel(s) : 6 channels
Channel positions : Front: L C R, Side: L R, LFE
Sampling rate : 48.0 KHz
Bit depth : 16 bits
Stream size : 244 MiB (20%)
Alignment : Aligned on interleaves


Plot:
Strange lights descend on the city of Los Angeles, drawing people outside like moths to a flame where
